<svg width="24" height="23" viewBox="0 0 24 23" fill="none" xmlns="http://www.w3.org/2000/svg">
<path d="M16.446 12.0685C16.3558 12.4871 16.2108 12.8921 16.0148 13.2728C15.8059 13.6489 15.5497 13.9967 15.2523 14.3075C14.942 14.6052 14.5948 14.8618 14.2193 15.0711C13.8388 15.2667 13.4346 15.4121 13.0167 15.5035C12.5928 15.5777 12.1612 15.5989 11.7321 15.5665C11.3067 15.5167 10.8896 15.4118 10.4912 15.2546C10.0948 15.0862 9.72179 14.8673 9.38149 14.603C9.05385 14.3241 8.76338 14.0041 8.51721 13.6509C8.286 13.2901 8.10231 12.901 7.97061 12.4931C7.8544 12.0784 7.79104 11.6505 7.78195 11.2199H10.6708C10.6845 11.364 10.7101 11.5068 10.7473 11.6468C10.7965 11.7825 10.8577 11.9135 10.9304 12.0382C11.0202 12.156 11.1199 12.2659 11.2283 12.3667C11.3457 12.4533 11.4711 12.5284 11.6028 12.591C11.7378 12.6414 11.8781 12.6766 12.0209 12.696C12.1664 12.7064 12.3125 12.7037 12.4575 12.6878C12.5955 12.6517 12.7299 12.6031 12.8592 12.5427C12.9852 12.4616 13.1044 12.3701 13.2155 12.2692C13.3162 12.1583 13.4076 12.0393 13.4888 11.9133C13.5492 11.783 13.5976 11.6474 13.6335 11.5083C13.6534 11.3605 13.6608 11.2112 13.6555 11.0621C13.6343 10.919 13.5985 10.7785 13.5488 10.6427C13.4865 10.5108 13.4116 10.3852 13.3253 10.2676C13.2247 10.1589 13.1149 10.0591 12.9973 9.96917C12.8732 9.89538 12.7421 9.8339 12.606 9.78576C12.4635 9.75048 12.318 9.72846 12.1715 9.72018H0.908203V6.83789H12.1604C12.5905 6.84557 13.0176 6.90906 13.4313 7.02676C13.8386 7.15859 14.2273 7.34261 14.5875 7.57417C14.9402 7.82033 15.2599 8.11101 15.5385 8.43905C15.8041 8.77423 16.0255 9.1422 16.1973 9.53387C16.354 9.93107 16.4587 10.3468 16.5089 10.7709C16.5423 11.2044 16.5211 11.6403 16.446 12.0685Z" fill="url(#paint0_linear_13_2497)"/>
<path d="M19.7258 12.7176C19.573 13.4625 19.3162 14.1821 18.9633 14.8554C18.5985 15.5204 18.1452 16.1327 17.6157 16.6755C17.073 17.2048 16.4617 17.6586 15.7982 18.0248C15.1255 18.3773 14.4072 18.6341 13.6638 18.7886C12.9198 18.9283 12.1603 18.9661 11.4062 18.9007C10.6558 18.8192 9.92008 18.635 9.21962 18.3533C8.5226 18.0565 7.86968 17.6651 7.27918 17.1901C6.69972 16.7007 6.18866 16.1354 5.75978 15.5095C5.34373 14.8743 5.01797 14.1841 4.79191 13.459C4.58073 12.7284 4.46952 11.9726 4.46131 11.212H7.28456C7.29258 11.6927 7.36334 12.1702 7.49504 12.6325C7.63981 13.0884 7.84483 13.5229 8.10453 13.9244C8.37891 14.3195 8.70319 14.6774 9.06927 14.9892C9.4437 15.2883 9.85645 15.5358 10.2965 15.7253C10.7409 15.9025 11.2069 16.0194 11.6822 16.073C12.1607 16.111 12.642 16.0871 13.1143 16.0018C13.5824 15.9035 14.0349 15.7414 14.4591 15.5202C14.8782 15.2869 15.265 14.9997 15.6097 14.6658C15.9434 14.3183 16.231 13.9292 16.4654 13.508C16.6841 13.0822 16.8458 12.6294 16.9463 12.1613C17.0306 11.6882 17.0535 11.2062 17.0146 10.7272C16.9626 10.2509 16.8458 9.78398 16.6676 9.33939C16.4797 8.90072 16.2352 8.48844 15.9406 8.1132C15.6292 7.74745 15.2718 7.42365 14.8773 7.14988C14.4764 6.88998 14.0425 6.68488 13.5873 6.54019C13.1256 6.40862 12.6488 6.33806 12.1688 6.33031H0.908203V3.48828H12.1604C12.9183 3.49652 13.6715 3.60891 14.3988 3.82233C15.1235 4.0491 15.8133 4.37515 16.4488 4.79125C17.0739 5.22067 17.6383 5.73246 18.1269 6.31281C18.6016 6.90446 18.9934 7.55825 19.2913 8.25608C19.5712 8.95795 19.7552 9.6945 19.8379 10.4458C19.9041 11.2046 19.8664 11.969 19.7258 12.7176Z" fill="url(#paint1_linear_13_2497)"/>
<path d="M23.0464 13.3769C22.8285 14.4498 22.4602 15.4865 21.9527 16.4561C21.4321 17.4153 20.7791 18.2962 20.0127 19.0727C19.2361 19.8388 18.3567 20.4927 17.3999 21.016C16.4316 21.5243 15.3965 21.8927 14.3252 22.1108C13.2554 22.3146 12.1624 22.3672 11.0782 22.2668C9.99098 22.1537 8.92531 21.8865 7.91311 21.4732C6.90734 21.0511 5.96605 20.489 5.11709 19.8036C4.2813 19.104 3.54557 18.2925 2.93057 17.3922C2.33006 16.4784 1.86173 15.4841 1.53954 14.4389C1.23008 13.391 1.06905 12.3047 1.06119 11.2119H3.9393C3.94819 12.0209 4.0677 12.8249 4.29453 13.6014C4.53532 14.3759 4.88307 15.1129 5.32771 15.791C5.78275 16.459 6.32713 17.0613 6.94561 17.5811C7.57564 18.0874 8.27172 18.5052 9.0146 18.8228C9.76474 19.125 10.5529 19.3222 11.3569 19.4086C12.1577 19.4769 12.964 19.4365 13.7539 19.288C14.5466 19.1226 15.3121 18.8463 16.0279 18.4671C16.7362 18.0783 17.3883 17.5949 17.9664 17.03C18.5338 16.4537 19.0202 15.8027 19.4123 15.0949C19.7913 14.3782 20.0676 13.6115 20.2332 12.8176C20.3814 12.023 20.4209 11.2117 20.3506 10.4064C20.2653 9.60143 20.0693 8.81209 19.7686 8.06067C19.4514 7.31671 19.0342 6.61962 18.5286 5.98871C18.009 5.36911 17.4076 4.8231 16.7412 4.36568C15.3874 3.46291 13.7977 2.98017 12.1713 2.97789H0.908203V0.0966797H12.1604C13.2553 0.1035 14.3438 0.264761 15.3938 0.575715C16.4376 0.899286 17.4305 1.36922 18.3428 1.97155C19.2438 2.58512 20.0543 3.32219 20.7507 4.16123C21.4375 5.01036 22.0014 5.95201 22.4261 6.95851C22.8384 7.97313 23.1053 9.04116 23.2187 10.1307C23.3129 11.2156 23.255 12.3083 23.0464 13.3769Z" fill="url(#paint2_linear_13_2497)"/>
<defs>
<linearGradient id="paint0_linear_13_2497" x1="0.908202" y1="7.04985" x2="8.09747" y2="19.7524" gradientUnits="userSpaceOnUse">
<stop stop-color="#ED2A24"/>
<stop offset="1" stop-color="#F3AE1B"/>
</linearGradient>
<linearGradient id="paint1_linear_13_2497" x1="0.908202" y1="3.86267" x2="15.4445" y2="21.5186" gradientUnits="userSpaceOnUse">
<stop stop-color="#ED2A24"/>
<stop offset="1" stop-color="#F3AE1B"/>
</linearGradient>
<linearGradient id="paint2_linear_13_2497" x1="0.908202" y1="0.635338" x2="22.2188" y2="21.845" gradientUnits="userSpaceOnUse">
<stop stop-color="#ED2A24"/>
<stop offset="1" stop-color="#F3AE1B"/>
</linearGradient>
</defs>
</svg>
